<mxfile host="app.diagrams.net" modified="2023-03-14T11:33:37.967Z" agent="5.0 (Windows NT 10.0; Win64; x64) AppleWebKit/537.36 (KHTML, like Gecko) Chrome/110.0.0.0 Safari/537.36" etag="nKAHXtUoL1lTpiyMESbA" version="21.0.6" type="github">
  <diagram name="第 1 页" id="MulzZqCtrLpp2-h5UZIe">
    <mxGraphModel dx="3695" dy="2237" grid="1" gridSize="10" guides="1" tooltips="1" connect="1" arrows="1" fold="1" page="1" pageScale="1" pageWidth="2500" pageHeight="1600" math="0" shadow="0">
      <root>
        <mxCell id="0" />
        <mxCell id="1" parent="0" />
        <mxCell id="U0KB2hz7Z5mPvC2rz3nU-149" value="该订单第三次下单失败" style="shape=umlFrame;whiteSpace=wrap;html=1;pointerEvents=0;width=70;height=40;fillColor=#FFF2CC;" vertex="1" parent="1">
          <mxGeometry x="-835" y="-430" width="830" height="180" as="geometry" />
        </mxCell>
        <mxCell id="U0KB2hz7Z5mPvC2rz3nU-63" value="TMS" style="shape=umlLifeline;perimeter=lifelinePerimeter;whiteSpace=wrap;html=1;container=0;dropTarget=0;collapsible=0;recursiveResize=0;outlineConnect=0;portConstraint=eastwest;newEdgeStyle={&quot;edgeStyle&quot;:&quot;elbowEdgeStyle&quot;,&quot;elbow&quot;:&quot;vertical&quot;,&quot;curved&quot;:0,&quot;rounded&quot;:0};fillColor=#FFCCCC;" vertex="1" parent="1">
          <mxGeometry x="-780" y="-1580" width="100" height="1840" as="geometry" />
        </mxCell>
        <mxCell id="U0KB2hz7Z5mPvC2rz3nU-64" value="下单" style="html=1;verticalAlign=bottom;startArrow=oval;endArrow=block;startSize=8;edgeStyle=elbowEdgeStyle;elbow=vertical;curved=0;rounded=0;" edge="1" parent="U0KB2hz7Z5mPvC2rz3nU-63">
          <mxGeometry relative="1" as="geometry">
            <mxPoint x="-15" y="70" as="sourcePoint" />
            <mxPoint x="45" y="70" as="targetPoint" />
          </mxGeometry>
        </mxCell>
        <mxCell id="U0KB2hz7Z5mPvC2rz3nU-65" value="快手" style="shape=umlLifeline;perimeter=lifelinePerimeter;whiteSpace=wrap;html=1;container=0;dropTarget=0;collapsible=0;recursiveResize=0;outlineConnect=0;portConstraint=eastwest;newEdgeStyle={&quot;edgeStyle&quot;:&quot;elbowEdgeStyle&quot;,&quot;elbow&quot;:&quot;vertical&quot;,&quot;curved&quot;:0,&quot;rounded&quot;:0};participant=label;fillColor=#FFCE9F;" vertex="1" parent="1">
          <mxGeometry x="-430" y="-1580" width="100" height="1840" as="geometry" />
        </mxCell>
        <mxCell id="U0KB2hz7Z5mPvC2rz3nU-66" value="" style="html=1;points=[];perimeter=orthogonalPerimeter;outlineConnect=0;targetShapes=umlLifeline;portConstraint=eastwest;newEdgeStyle={&quot;edgeStyle&quot;:&quot;elbowEdgeStyle&quot;,&quot;elbow&quot;:&quot;vertical&quot;,&quot;curved&quot;:0,&quot;rounded&quot;:0};" vertex="1" parent="U0KB2hz7Z5mPvC2rz3nU-65">
          <mxGeometry x="44" y="550" width="10" height="50" as="geometry" />
        </mxCell>
        <mxCell id="U0KB2hz7Z5mPvC2rz3nU-68" value="" style="html=1;points=[];perimeter=orthogonalPerimeter;outlineConnect=0;targetShapes=umlLifeline;portConstraint=eastwest;newEdgeStyle={&quot;edgeStyle&quot;:&quot;elbowEdgeStyle&quot;,&quot;elbow&quot;:&quot;vertical&quot;,&quot;curved&quot;:0,&quot;rounded&quot;:0};" vertex="1" parent="U0KB2hz7Z5mPvC2rz3nU-65">
          <mxGeometry x="45" y="680" width="10" height="40" as="geometry" />
        </mxCell>
        <mxCell id="U0KB2hz7Z5mPvC2rz3nU-69" value="" style="html=1;points=[];perimeter=orthogonalPerimeter;outlineConnect=0;targetShapes=umlLifeline;portConstraint=eastwest;newEdgeStyle={&quot;edgeStyle&quot;:&quot;elbowEdgeStyle&quot;,&quot;elbow&quot;:&quot;vertical&quot;,&quot;curved&quot;:0,&quot;rounded&quot;:0};" vertex="1" parent="U0KB2hz7Z5mPvC2rz3nU-65">
          <mxGeometry x="46" y="990" width="10" height="51" as="geometry" />
        </mxCell>
        <mxCell id="U0KB2hz7Z5mPvC2rz3nU-148" value="" style="html=1;points=[];perimeter=orthogonalPerimeter;outlineConnect=0;targetShapes=umlLifeline;portConstraint=eastwest;newEdgeStyle={&quot;edgeStyle&quot;:&quot;elbowEdgeStyle&quot;,&quot;elbow&quot;:&quot;vertical&quot;,&quot;curved&quot;:0,&quot;rounded&quot;:0};" vertex="1" parent="U0KB2hz7Z5mPvC2rz3nU-65">
          <mxGeometry x="44" y="1180" width="10" height="40" as="geometry" />
        </mxCell>
        <mxCell id="U0KB2hz7Z5mPvC2rz3nU-70" value="" style="group;" vertex="1" connectable="0" parent="1">
          <mxGeometry x="-735" y="-1520" width="117.5" height="760" as="geometry" />
        </mxCell>
        <mxCell id="U0KB2hz7Z5mPvC2rz3nU-132" value="查询结果为空" style="shape=umlFrame;whiteSpace=wrap;html=1;pointerEvents=0;fillColor=#FFF2CC;" vertex="1" parent="U0KB2hz7Z5mPvC2rz3nU-70">
          <mxGeometry x="-72.5" y="90" width="190" height="130" as="geometry" />
        </mxCell>
        <mxCell id="U0KB2hz7Z5mPvC2rz3nU-71" value="" style="html=1;points=[];perimeter=orthogonalPerimeter;outlineConnect=0;targetShapes=umlLifeline;portConstraint=eastwest;newEdgeStyle={&quot;edgeStyle&quot;:&quot;elbowEdgeStyle&quot;,&quot;elbow&quot;:&quot;vertical&quot;,&quot;curved&quot;:0,&quot;rounded&quot;:0};" vertex="1" parent="U0KB2hz7Z5mPvC2rz3nU-70">
          <mxGeometry width="10" height="1672" as="geometry" />
        </mxCell>
        <mxCell id="U0KB2hz7Z5mPvC2rz3nU-72" value="" style="endArrow=classic;html=1;rounded=0;edgeStyle=orthogonalEdgeStyle;" edge="1" parent="U0KB2hz7Z5mPvC2rz3nU-70" source="U0KB2hz7Z5mPvC2rz3nU-71" target="U0KB2hz7Z5mPvC2rz3nU-71">
          <mxGeometry width="50" height="50" relative="1" as="geometry">
            <mxPoint x="15" y="250" as="sourcePoint" />
            <mxPoint x="15" y="310" as="targetPoint" />
            <Array as="points">
              <mxPoint x="30" y="250" />
              <mxPoint x="30" y="310" />
            </Array>
          </mxGeometry>
        </mxCell>
        <mxCell id="U0KB2hz7Z5mPvC2rz3nU-73" value="查询出来的订单&lt;br&gt;组装下单需要的数据&lt;br&gt;组装收发货地址对象" style="edgeLabel;html=1;align=center;verticalAlign=middle;resizable=0;points=[];" vertex="1" connectable="0" parent="U0KB2hz7Z5mPvC2rz3nU-72">
          <mxGeometry x="0.1" y="-3" relative="1" as="geometry">
            <mxPoint x="38" y="-4" as="offset" />
          </mxGeometry>
        </mxCell>
        <mxCell id="U0KB2hz7Z5mPvC2rz3nU-76" value="" style="endArrow=classic;html=1;rounded=0;edgeStyle=orthogonalEdgeStyle;" edge="1" parent="U0KB2hz7Z5mPvC2rz3nU-70" source="U0KB2hz7Z5mPvC2rz3nU-71" target="U0KB2hz7Z5mPvC2rz3nU-71">
          <mxGeometry width="50" height="50" relative="1" as="geometry">
            <mxPoint x="18" y="680" as="sourcePoint" />
            <mxPoint x="15" y="721" as="targetPoint" />
            <Array as="points">
              <mxPoint x="30" y="680" />
              <mxPoint x="30" y="721" />
            </Array>
          </mxGeometry>
        </mxCell>
        <mxCell id="U0KB2hz7Z5mPvC2rz3nU-77" value="解析地址查询结果&lt;br&gt;并保存" style="edgeLabel;html=1;align=left;verticalAlign=middle;resizable=0;points=[];" vertex="1" connectable="0" parent="U0KB2hz7Z5mPvC2rz3nU-76">
          <mxGeometry x="0.1" y="2" relative="1" as="geometry">
            <mxPoint x="-9" y="-4" as="offset" />
          </mxGeometry>
        </mxCell>
        <mxCell id="U0KB2hz7Z5mPvC2rz3nU-78" value="" style="endArrow=classic;html=1;rounded=0;edgeStyle=orthogonalEdgeStyle;startSize=5;" edge="1" parent="U0KB2hz7Z5mPvC2rz3nU-70" source="U0KB2hz7Z5mPvC2rz3nU-71" target="U0KB2hz7Z5mPvC2rz3nU-71">
          <mxGeometry width="50" height="50" relative="1" as="geometry">
            <mxPoint x="18" y="800" as="sourcePoint" />
            <mxPoint x="18" y="860" as="targetPoint" />
            <Array as="points">
              <mxPoint x="33" y="800" />
              <mxPoint x="33" y="860" />
            </Array>
          </mxGeometry>
        </mxCell>
        <mxCell id="U0KB2hz7Z5mPvC2rz3nU-129" value="" style="endArrow=classic;html=1;rounded=0;edgeStyle=orthogonalEdgeStyle;" edge="1" parent="U0KB2hz7Z5mPvC2rz3nU-70" source="U0KB2hz7Z5mPvC2rz3nU-71" target="U0KB2hz7Z5mPvC2rz3nU-71">
          <mxGeometry width="50" height="50" relative="1" as="geometry">
            <mxPoint x="15" y="130" as="sourcePoint" />
            <mxPoint x="15" y="190" as="targetPoint" />
            <Array as="points">
              <mxPoint x="30" y="130" />
              <mxPoint x="30" y="190" />
            </Array>
          </mxGeometry>
        </mxCell>
        <mxCell id="U0KB2hz7Z5mPvC2rz3nU-130" value="没有需要&lt;br&gt;取号的订单&lt;br&gt;，返回" style="edgeLabel;html=1;align=center;verticalAlign=middle;resizable=0;points=[];" vertex="1" connectable="0" parent="U0KB2hz7Z5mPvC2rz3nU-129">
          <mxGeometry x="0.1" y="-3" relative="1" as="geometry">
            <mxPoint x="18" y="-4" as="offset" />
          </mxGeometry>
        </mxCell>
        <mxCell id="U0KB2hz7Z5mPvC2rz3nU-110" value="" style="endArrow=classic;html=1;rounded=0;edgeStyle=orthogonalEdgeStyle;startSize=5;" edge="1" parent="U0KB2hz7Z5mPvC2rz3nU-70" source="U0KB2hz7Z5mPvC2rz3nU-71" target="U0KB2hz7Z5mPvC2rz3nU-71">
          <mxGeometry width="50" height="50" relative="1" as="geometry">
            <mxPoint x="15" y="1070" as="sourcePoint" />
            <mxPoint x="15" y="1120" as="targetPoint" />
            <Array as="points">
              <mxPoint x="38" y="990" />
              <mxPoint x="38" y="1040" />
            </Array>
          </mxGeometry>
        </mxCell>
        <mxCell id="U0KB2hz7Z5mPvC2rz3nU-111" value="解析结果&lt;br&gt;构建下单结果对象" style="edgeLabel;html=1;align=left;verticalAlign=middle;resizable=0;points=[];" vertex="1" connectable="0" parent="U0KB2hz7Z5mPvC2rz3nU-110">
          <mxGeometry x="-0.3488" y="-1" relative="1" as="geometry">
            <mxPoint x="-14" y="15" as="offset" />
          </mxGeometry>
        </mxCell>
        <mxCell id="U0KB2hz7Z5mPvC2rz3nU-74" value="" style="endArrow=classic;html=1;rounded=0;edgeStyle=orthogonalEdgeStyle;" edge="1" parent="U0KB2hz7Z5mPvC2rz3nU-70" source="U0KB2hz7Z5mPvC2rz3nU-71" target="U0KB2hz7Z5mPvC2rz3nU-71">
          <mxGeometry width="50" height="50" relative="1" as="geometry">
            <mxPoint x="15" y="410" as="sourcePoint" />
            <mxPoint x="15" y="450" as="targetPoint" />
            <Array as="points">
              <mxPoint x="55" y="410" />
              <mxPoint x="55" y="450" />
            </Array>
          </mxGeometry>
        </mxCell>
        <mxCell id="U0KB2hz7Z5mPvC2rz3nU-75" value="订单分组，每10个1组" style="edgeLabel;html=1;align=center;verticalAlign=middle;resizable=0;points=[];" vertex="1" connectable="0" parent="U0KB2hz7Z5mPvC2rz3nU-74">
          <mxGeometry x="0.1" y="-3" relative="1" as="geometry">
            <mxPoint x="23" y="-10" as="offset" />
          </mxGeometry>
        </mxCell>
        <mxCell id="U0KB2hz7Z5mPvC2rz3nU-103" value="" style="endArrow=classic;html=1;rounded=0;edgeStyle=orthogonalEdgeStyle;entryX=0.5;entryY=0.464;entryDx=0;entryDy=0;entryPerimeter=0;" edge="1" parent="U0KB2hz7Z5mPvC2rz3nU-70" source="U0KB2hz7Z5mPvC2rz3nU-71" target="U0KB2hz7Z5mPvC2rz3nU-71">
          <mxGeometry width="50" height="50" relative="1" as="geometry">
            <mxPoint x="20" y="735" as="sourcePoint" />
            <mxPoint x="15" y="775" as="targetPoint" />
            <Array as="points">
              <mxPoint x="45" y="740" />
              <mxPoint x="45" y="776" />
            </Array>
          </mxGeometry>
        </mxCell>
        <mxCell id="U0KB2hz7Z5mPvC2rz3nU-104" value="判断当前订单地址是否可达&lt;br&gt;地址不可达，构建失败结果对象&lt;br&gt;地址可达，组装入参" style="edgeLabel;html=1;align=left;verticalAlign=middle;resizable=0;points=[];" vertex="1" connectable="0" parent="U0KB2hz7Z5mPvC2rz3nU-103">
          <mxGeometry relative="1" as="geometry">
            <mxPoint x="-30" y="75" as="offset" />
          </mxGeometry>
        </mxCell>
        <mxCell id="U0KB2hz7Z5mPvC2rz3nU-105" value="遍历&lt;br style=&quot;border-color: var(--border-color);&quot;&gt;订单列表" style="edgeLabel;html=1;align=left;verticalAlign=middle;resizable=0;points=[];" vertex="1" connectable="0" parent="U0KB2hz7Z5mPvC2rz3nU-103">
          <mxGeometry x="-0.275" relative="1" as="geometry">
            <mxPoint x="-10" y="11" as="offset" />
          </mxGeometry>
        </mxCell>
        <mxCell id="U0KB2hz7Z5mPvC2rz3nU-79" value="mysql" style="shape=umlLifeline;perimeter=lifelinePerimeter;whiteSpace=wrap;html=1;container=0;dropTarget=0;collapsible=0;recursiveResize=0;outlineConnect=0;portConstraint=eastwest;newEdgeStyle={&quot;edgeStyle&quot;:&quot;elbowEdgeStyle&quot;,&quot;elbow&quot;:&quot;vertical&quot;,&quot;curved&quot;:0,&quot;rounded&quot;:0};fillColor=#E6FFCC;" vertex="1" parent="1">
          <mxGeometry x="-600" y="-1580" width="100" height="1840" as="geometry" />
        </mxCell>
        <mxCell id="U0KB2hz7Z5mPvC2rz3nU-80" value="" style="html=1;points=[];perimeter=orthogonalPerimeter;outlineConnect=0;targetShapes=umlLifeline;portConstraint=eastwest;newEdgeStyle={&quot;edgeStyle&quot;:&quot;elbowEdgeStyle&quot;,&quot;elbow&quot;:&quot;vertical&quot;,&quot;curved&quot;:0,&quot;rounded&quot;:0};" vertex="1" parent="U0KB2hz7Z5mPvC2rz3nU-79">
          <mxGeometry x="45" y="410" width="10" height="40" as="geometry" />
        </mxCell>
        <mxCell id="U0KB2hz7Z5mPvC2rz3nU-81" value="" style="html=1;points=[];perimeter=orthogonalPerimeter;outlineConnect=0;targetShapes=umlLifeline;portConstraint=eastwest;newEdgeStyle={&quot;edgeStyle&quot;:&quot;elbowEdgeStyle&quot;,&quot;elbow&quot;:&quot;vertical&quot;,&quot;curved&quot;:0,&quot;rounded&quot;:0};" vertex="1" parent="U0KB2hz7Z5mPvC2rz3nU-79">
          <mxGeometry x="45" y="1350" width="10" height="50" as="geometry" />
        </mxCell>
        <mxCell id="U0KB2hz7Z5mPvC2rz3nU-122" value="" style="html=1;points=[];perimeter=orthogonalPerimeter;outlineConnect=0;targetShapes=umlLifeline;portConstraint=eastwest;newEdgeStyle={&quot;edgeStyle&quot;:&quot;elbowEdgeStyle&quot;,&quot;elbow&quot;:&quot;vertical&quot;,&quot;curved&quot;:0,&quot;rounded&quot;:0};" vertex="1" parent="U0KB2hz7Z5mPvC2rz3nU-79">
          <mxGeometry x="45" y="80" width="10" height="50" as="geometry" />
        </mxCell>
        <mxCell id="U0KB2hz7Z5mPvC2rz3nU-154" value="" style="html=1;points=[];perimeter=orthogonalPerimeter;outlineConnect=0;targetShapes=umlLifeline;portConstraint=eastwest;newEdgeStyle={&quot;edgeStyle&quot;:&quot;elbowEdgeStyle&quot;,&quot;elbow&quot;:&quot;vertical&quot;,&quot;curved&quot;:0,&quot;rounded&quot;:0};" vertex="1" parent="U0KB2hz7Z5mPvC2rz3nU-79">
          <mxGeometry x="45" y="1220" width="10" height="40" as="geometry" />
        </mxCell>
        <mxCell id="U0KB2hz7Z5mPvC2rz3nU-82" value="oms" style="shape=umlLifeline;perimeter=lifelinePerimeter;whiteSpace=wrap;html=1;container=0;dropTarget=0;collapsible=0;recursiveResize=0;outlineConnect=0;portConstraint=eastwest;newEdgeStyle={&quot;edgeStyle&quot;:&quot;elbowEdgeStyle&quot;,&quot;elbow&quot;:&quot;vertical&quot;,&quot;curved&quot;:0,&quot;rounded&quot;:0};fillColor=#99CCFF;" vertex="1" parent="1">
          <mxGeometry x="-250" y="-1580" width="100" height="1840" as="geometry" />
        </mxCell>
        <mxCell id="U0KB2hz7Z5mPvC2rz3nU-83" value="" style="html=1;points=[];perimeter=orthogonalPerimeter;outlineConnect=0;targetShapes=umlLifeline;portConstraint=eastwest;newEdgeStyle={&quot;edgeStyle&quot;:&quot;elbowEdgeStyle&quot;,&quot;elbow&quot;:&quot;vertical&quot;,&quot;curved&quot;:0,&quot;rounded&quot;:0};" vertex="1" parent="U0KB2hz7Z5mPvC2rz3nU-82">
          <mxGeometry x="45" y="610" width="10" height="50" as="geometry" />
        </mxCell>
        <mxCell id="U0KB2hz7Z5mPvC2rz3nU-84" value="" style="html=1;points=[];perimeter=orthogonalPerimeter;outlineConnect=0;targetShapes=umlLifeline;portConstraint=eastwest;newEdgeStyle={&quot;edgeStyle&quot;:&quot;elbowEdgeStyle&quot;,&quot;elbow&quot;:&quot;vertical&quot;,&quot;curved&quot;:0,&quot;rounded&quot;:0};" vertex="1" parent="U0KB2hz7Z5mPvC2rz3nU-82">
          <mxGeometry x="45" y="1480" width="10" height="50" as="geometry" />
        </mxCell>
        <mxCell id="U0KB2hz7Z5mPvC2rz3nU-85" value="中通" style="shape=umlLifeline;perimeter=lifelinePerimeter;whiteSpace=wrap;html=1;container=0;dropTarget=0;collapsible=0;recursiveResize=0;outlineConnect=0;portConstraint=eastwest;newEdgeStyle={&quot;edgeStyle&quot;:&quot;elbowEdgeStyle&quot;,&quot;elbow&quot;:&quot;vertical&quot;,&quot;curved&quot;:0,&quot;rounded&quot;:0};fillColor=#9999FF;" vertex="1" parent="1">
          <mxGeometry x="-90" y="-1580" width="100" height="1840" as="geometry" />
        </mxCell>
        <mxCell id="U0KB2hz7Z5mPvC2rz3nU-86" value="" style="html=1;points=[];perimeter=orthogonalPerimeter;outlineConnect=0;targetShapes=umlLifeline;portConstraint=eastwest;newEdgeStyle={&quot;edgeStyle&quot;:&quot;elbowEdgeStyle&quot;,&quot;elbow&quot;:&quot;vertical&quot;,&quot;curved&quot;:0,&quot;rounded&quot;:0};" vertex="1" parent="U0KB2hz7Z5mPvC2rz3nU-85">
          <mxGeometry x="45" y="1540" width="10" height="60" as="geometry" />
        </mxCell>
        <mxCell id="U0KB2hz7Z5mPvC2rz3nU-87" value="" style="endArrow=classic;html=1;rounded=0;" edge="1" parent="1" target="U0KB2hz7Z5mPvC2rz3nU-80">
          <mxGeometry width="50" height="50" relative="1" as="geometry">
            <mxPoint x="-720" y="-1170" as="sourcePoint" />
            <mxPoint x="-630" y="-1270" as="targetPoint" />
            <Array as="points">
              <mxPoint x="-670" y="-1170" />
            </Array>
          </mxGeometry>
        </mxCell>
        <mxCell id="U0KB2hz7Z5mPvC2rz3nU-88" value="查询快递配置" style="edgeLabel;html=1;align=center;verticalAlign=middle;resizable=0;points=[];" vertex="1" connectable="0" parent="U0KB2hz7Z5mPvC2rz3nU-87">
          <mxGeometry x="-0.6778" relative="1" as="geometry">
            <mxPoint x="43" y="-10" as="offset" />
          </mxGeometry>
        </mxCell>
        <mxCell id="U0KB2hz7Z5mPvC2rz3nU-89" value="" style="endArrow=classic;html=1;rounded=0;dashed=1;" edge="1" parent="1" source="U0KB2hz7Z5mPvC2rz3nU-80">
          <mxGeometry width="50" height="50" relative="1" as="geometry">
            <mxPoint x="-690" y="-1150" as="sourcePoint" />
            <mxPoint x="-720" y="-1150" as="targetPoint" />
          </mxGeometry>
        </mxCell>
        <mxCell id="U0KB2hz7Z5mPvC2rz3nU-90" value="返回快递配置" style="edgeLabel;html=1;align=center;verticalAlign=middle;resizable=0;points=[];" vertex="1" connectable="0" parent="U0KB2hz7Z5mPvC2rz3nU-89">
          <mxGeometry x="0.2588" relative="1" as="geometry">
            <mxPoint as="offset" />
          </mxGeometry>
        </mxCell>
        <mxCell id="U0KB2hz7Z5mPvC2rz3nU-91" value="" style="endArrow=classic;html=1;rounded=0;" edge="1" parent="1" source="U0KB2hz7Z5mPvC2rz3nU-71" target="U0KB2hz7Z5mPvC2rz3nU-66">
          <mxGeometry width="50" height="50" relative="1" as="geometry">
            <mxPoint x="-720" y="-1030" as="sourcePoint" />
            <mxPoint x="-610" y="-1100" as="targetPoint" />
            <Array as="points">
              <mxPoint x="-420" y="-1030" />
            </Array>
          </mxGeometry>
        </mxCell>
        <mxCell id="U0KB2hz7Z5mPvC2rz3nU-92" value="遍历分组，发起地址可达查询请求" style="edgeLabel;html=1;align=center;verticalAlign=middle;resizable=0;points=[];" vertex="1" connectable="0" parent="U0KB2hz7Z5mPvC2rz3nU-91">
          <mxGeometry x="-0.5786" y="3" relative="1" as="geometry">
            <mxPoint x="102" as="offset" />
          </mxGeometry>
        </mxCell>
        <mxCell id="U0KB2hz7Z5mPvC2rz3nU-93" value="" style="endArrow=classic;html=1;rounded=0;dashed=1;" edge="1" parent="1" source="U0KB2hz7Z5mPvC2rz3nU-66">
          <mxGeometry width="50" height="50" relative="1" as="geometry">
            <mxPoint x="-390" y="-1010" as="sourcePoint" />
            <mxPoint x="-720" y="-1000" as="targetPoint" />
          </mxGeometry>
        </mxCell>
        <mxCell id="U0KB2hz7Z5mPvC2rz3nU-94" value="返回鉴权失败，token过期" style="edgeLabel;html=1;align=center;verticalAlign=middle;resizable=0;points=[];" vertex="1" connectable="0" parent="U0KB2hz7Z5mPvC2rz3nU-93">
          <mxGeometry x="-0.1858" y="1" relative="1" as="geometry">
            <mxPoint as="offset" />
          </mxGeometry>
        </mxCell>
        <mxCell id="U0KB2hz7Z5mPvC2rz3nU-95" value="" style="endArrow=classic;html=1;rounded=0;" edge="1" parent="1" source="U0KB2hz7Z5mPvC2rz3nU-71" target="U0KB2hz7Z5mPvC2rz3nU-83">
          <mxGeometry width="50" height="50" relative="1" as="geometry">
            <mxPoint x="-715" y="-970" as="sourcePoint" />
            <mxPoint x="-670" y="-960" as="targetPoint" />
            <Array as="points">
              <mxPoint x="-680" y="-970" />
              <mxPoint x="-270" y="-970" />
            </Array>
          </mxGeometry>
        </mxCell>
        <mxCell id="U0KB2hz7Z5mPvC2rz3nU-96" value="请求获取token" style="edgeLabel;html=1;align=center;verticalAlign=middle;resizable=0;points=[];" vertex="1" connectable="0" parent="U0KB2hz7Z5mPvC2rz3nU-95">
          <mxGeometry x="-0.5154" y="-5" relative="1" as="geometry">
            <mxPoint as="offset" />
          </mxGeometry>
        </mxCell>
        <mxCell id="U0KB2hz7Z5mPvC2rz3nU-97" value="" style="endArrow=classic;html=1;rounded=0;dashed=1;" edge="1" parent="1" source="U0KB2hz7Z5mPvC2rz3nU-83">
          <mxGeometry width="50" height="50" relative="1" as="geometry">
            <mxPoint x="-960" y="-900" as="sourcePoint" />
            <mxPoint x="-720" y="-945" as="targetPoint" />
          </mxGeometry>
        </mxCell>
        <mxCell id="U0KB2hz7Z5mPvC2rz3nU-98" value="返回token" style="edgeLabel;html=1;align=center;verticalAlign=middle;resizable=0;points=[];" vertex="1" connectable="0" parent="U0KB2hz7Z5mPvC2rz3nU-97">
          <mxGeometry x="0.1885" y="1" relative="1" as="geometry">
            <mxPoint as="offset" />
          </mxGeometry>
        </mxCell>
        <mxCell id="U0KB2hz7Z5mPvC2rz3nU-99" value="" style="endArrow=classic;html=1;rounded=0;" edge="1" parent="1" source="U0KB2hz7Z5mPvC2rz3nU-71">
          <mxGeometry width="50" height="50" relative="1" as="geometry">
            <mxPoint x="-715" y="-900" as="sourcePoint" />
            <mxPoint x="-386" y="-900" as="targetPoint" />
            <Array as="points">
              <mxPoint x="-420" y="-900" />
            </Array>
          </mxGeometry>
        </mxCell>
        <mxCell id="U0KB2hz7Z5mPvC2rz3nU-100" value="重试请求查询地址是否可达" style="edgeLabel;html=1;align=center;verticalAlign=middle;resizable=0;points=[];" vertex="1" connectable="0" parent="U0KB2hz7Z5mPvC2rz3nU-99">
          <mxGeometry x="-0.5786" y="3" relative="1" as="geometry">
            <mxPoint x="102" as="offset" />
          </mxGeometry>
        </mxCell>
        <mxCell id="U0KB2hz7Z5mPvC2rz3nU-108" value="" style="endArrow=classic;html=1;rounded=0;dashed=1;" edge="1" parent="1" source="U0KB2hz7Z5mPvC2rz3nU-68" target="U0KB2hz7Z5mPvC2rz3nU-71">
          <mxGeometry width="50" height="50" relative="1" as="geometry">
            <mxPoint x="-1170" y="-580" as="sourcePoint" />
            <mxPoint x="-720" y="-880" as="targetPoint" />
          </mxGeometry>
        </mxCell>
        <mxCell id="U0KB2hz7Z5mPvC2rz3nU-109" value="返回下单结果" style="edgeLabel;html=1;align=center;verticalAlign=middle;resizable=0;points=[];" vertex="1" connectable="0" parent="U0KB2hz7Z5mPvC2rz3nU-108">
          <mxGeometry x="0.4783" y="5" relative="1" as="geometry">
            <mxPoint as="offset" />
          </mxGeometry>
        </mxCell>
        <mxCell id="U0KB2hz7Z5mPvC2rz3nU-112" value="" style="endArrow=classic;html=1;rounded=0;" edge="1" parent="1">
          <mxGeometry width="50" height="50" relative="1" as="geometry">
            <mxPoint x="-720" y="-210" as="sourcePoint" />
            <mxPoint x="-555.0000000000005" y="-210" as="targetPoint" />
            <Array as="points">
              <mxPoint x="-664.5" y="-210" />
            </Array>
          </mxGeometry>
        </mxCell>
        <mxCell id="U0KB2hz7Z5mPvC2rz3nU-113" value="保存下单结果，&lt;br&gt;修改订单状态，&lt;br&gt;打印信息，&lt;br&gt;运单信息" style="edgeLabel;html=1;align=left;verticalAlign=middle;resizable=0;points=[];" vertex="1" connectable="0" parent="U0KB2hz7Z5mPvC2rz3nU-112">
          <mxGeometry x="0.2118" y="-1" relative="1" as="geometry">
            <mxPoint x="-54" y="14" as="offset" />
          </mxGeometry>
        </mxCell>
        <mxCell id="U0KB2hz7Z5mPvC2rz3nU-114" value="" style="endArrow=classic;html=1;rounded=0;" edge="1" parent="1" source="U0KB2hz7Z5mPvC2rz3nU-71" target="U0KB2hz7Z5mPvC2rz3nU-84">
          <mxGeometry width="50" height="50" relative="1" as="geometry">
            <mxPoint x="-720" y="-470" as="sourcePoint" />
            <mxPoint x="-640" y="-500" as="targetPoint" />
            <Array as="points">
              <mxPoint x="-630" y="-100" />
            </Array>
          </mxGeometry>
        </mxCell>
        <mxCell id="U0KB2hz7Z5mPvC2rz3nU-115" value="回推下单结果给oms" style="edgeLabel;html=1;align=center;verticalAlign=middle;resizable=0;points=[];" vertex="1" connectable="0" parent="U0KB2hz7Z5mPvC2rz3nU-114">
          <mxGeometry x="-0.6023" relative="1" as="geometry">
            <mxPoint x="1" as="offset" />
          </mxGeometry>
        </mxCell>
        <mxCell id="U0KB2hz7Z5mPvC2rz3nU-116" value="" style="endArrow=classic;html=1;rounded=0;" edge="1" parent="1" source="U0KB2hz7Z5mPvC2rz3nU-71" target="U0KB2hz7Z5mPvC2rz3nU-86">
          <mxGeometry width="50" height="50" relative="1" as="geometry">
            <mxPoint x="-660" y="-370" as="sourcePoint" />
            <mxPoint x="-610" y="-420" as="targetPoint" />
            <Array as="points">
              <mxPoint x="-640" y="-40" />
              <mxPoint x="-430" y="-40" />
              <mxPoint x="-140" y="-40" />
            </Array>
          </mxGeometry>
        </mxCell>
        <mxCell id="U0KB2hz7Z5mPvC2rz3nU-117" value="订阅中通轨迹" style="edgeLabel;html=1;align=center;verticalAlign=middle;resizable=0;points=[];" vertex="1" connectable="0" parent="U0KB2hz7Z5mPvC2rz3nU-116">
          <mxGeometry x="-0.3089" y="1" relative="1" as="geometry">
            <mxPoint as="offset" />
          </mxGeometry>
        </mxCell>
        <mxCell id="U0KB2hz7Z5mPvC2rz3nU-118" value="保存成功" style="shape=umlFrame;whiteSpace=wrap;html=1;pointerEvents=0;fillColor=#FFF2CC;" vertex="1" parent="1">
          <mxGeometry x="-830" y="-160" width="820" height="200" as="geometry" />
        </mxCell>
        <mxCell id="U0KB2hz7Z5mPvC2rz3nU-119" value="" style="endArrow=classic;html=1;rounded=0;" edge="1" parent="1" source="U0KB2hz7Z5mPvC2rz3nU-71" target="U0KB2hz7Z5mPvC2rz3nU-134">
          <mxGeometry width="50" height="50" relative="1" as="geometry">
            <mxPoint x="-710" y="-200" as="sourcePoint" />
            <mxPoint x="-660" y="-250" as="targetPoint" />
            <Array as="points">
              <mxPoint x="-630" y="120" />
              <mxPoint x="-520" y="120" />
            </Array>
          </mxGeometry>
        </mxCell>
        <mxCell id="U0KB2hz7Z5mPvC2rz3nU-120" value="发起取消" style="edgeLabel;html=1;align=center;verticalAlign=middle;resizable=0;points=[];" vertex="1" connectable="0" parent="U0KB2hz7Z5mPvC2rz3nU-119">
          <mxGeometry x="-0.1756" y="1" relative="1" as="geometry">
            <mxPoint as="offset" />
          </mxGeometry>
        </mxCell>
        <mxCell id="U0KB2hz7Z5mPvC2rz3nU-121" value="保存出错" style="shape=umlFrame;whiteSpace=wrap;html=1;pointerEvents=0;fillColor=#FFF2CC;" vertex="1" parent="1">
          <mxGeometry x="-830" y="90" width="820" height="150" as="geometry" />
        </mxCell>
        <mxCell id="U0KB2hz7Z5mPvC2rz3nU-124" value="" style="endArrow=classic;html=1;rounded=0;" edge="1" parent="1" source="U0KB2hz7Z5mPvC2rz3nU-71" target="U0KB2hz7Z5mPvC2rz3nU-122">
          <mxGeometry width="50" height="50" relative="1" as="geometry">
            <mxPoint x="-690" y="-1480" as="sourcePoint" />
            <mxPoint x="-640" y="-1530" as="targetPoint" />
            <Array as="points">
              <mxPoint x="-670" y="-1490" />
            </Array>
          </mxGeometry>
        </mxCell>
        <mxCell id="U0KB2hz7Z5mPvC2rz3nU-125" value="查询订单是否未下过单&lt;br&gt;且失败次数不超过3的" style="edgeLabel;html=1;align=center;verticalAlign=middle;resizable=0;points=[];" vertex="1" connectable="0" parent="U0KB2hz7Z5mPvC2rz3nU-124">
          <mxGeometry x="-0.2118" y="-1" relative="1" as="geometry">
            <mxPoint as="offset" />
          </mxGeometry>
        </mxCell>
        <mxCell id="U0KB2hz7Z5mPvC2rz3nU-126" value="" style="endArrow=classic;html=1;rounded=0;dashed=1;" edge="1" parent="1" source="U0KB2hz7Z5mPvC2rz3nU-122" target="U0KB2hz7Z5mPvC2rz3nU-71">
          <mxGeometry width="50" height="50" relative="1" as="geometry">
            <mxPoint x="-670" y="-1410" as="sourcePoint" />
            <mxPoint x="-620" y="-1460" as="targetPoint" />
            <Array as="points">
              <mxPoint x="-590" y="-1460" />
            </Array>
          </mxGeometry>
        </mxCell>
        <mxCell id="U0KB2hz7Z5mPvC2rz3nU-127" value="返回查询结果" style="edgeLabel;html=1;align=center;verticalAlign=middle;resizable=0;points=[];" vertex="1" connectable="0" parent="U0KB2hz7Z5mPvC2rz3nU-126">
          <mxGeometry x="-0.3412" relative="1" as="geometry">
            <mxPoint as="offset" />
          </mxGeometry>
        </mxCell>
        <mxCell id="U0KB2hz7Z5mPvC2rz3nU-134" value="" style="html=1;points=[];perimeter=orthogonalPerimeter;outlineConnect=0;targetShapes=umlLifeline;portConstraint=eastwest;newEdgeStyle={&quot;edgeStyle&quot;:&quot;elbowEdgeStyle&quot;,&quot;elbow&quot;:&quot;vertical&quot;,&quot;curved&quot;:0,&quot;rounded&quot;:0};" vertex="1" parent="1">
          <mxGeometry x="-385" y="120" width="10" height="80" as="geometry" />
        </mxCell>
        <mxCell id="U0KB2hz7Z5mPvC2rz3nU-144" value="" style="endArrow=classic;html=1;rounded=0;" edge="1" parent="1" source="U0KB2hz7Z5mPvC2rz3nU-71" target="U0KB2hz7Z5mPvC2rz3nU-69">
          <mxGeometry width="50" height="50" relative="1" as="geometry">
            <mxPoint x="-680" y="-440" as="sourcePoint" />
            <mxPoint x="-630" y="-490" as="targetPoint" />
          </mxGeometry>
        </mxCell>
        <mxCell id="U0KB2hz7Z5mPvC2rz3nU-145" value="发起取号请求" style="edgeLabel;html=1;align=center;verticalAlign=middle;resizable=0;points=[];" vertex="1" connectable="0" parent="U0KB2hz7Z5mPvC2rz3nU-144">
          <mxGeometry x="-0.5044" relative="1" as="geometry">
            <mxPoint as="offset" />
          </mxGeometry>
        </mxCell>
        <mxCell id="U0KB2hz7Z5mPvC2rz3nU-146" value="" style="endArrow=classic;html=1;rounded=0;dashed=1;" edge="1" parent="1" source="U0KB2hz7Z5mPvC2rz3nU-69" target="U0KB2hz7Z5mPvC2rz3nU-71">
          <mxGeometry width="50" height="50" relative="1" as="geometry">
            <mxPoint x="-470" y="-540" as="sourcePoint" />
            <mxPoint x="-420" y="-590" as="targetPoint" />
          </mxGeometry>
        </mxCell>
        <mxCell id="U0KB2hz7Z5mPvC2rz3nU-147" value="返回结果" style="edgeLabel;html=1;align=center;verticalAlign=middle;resizable=0;points=[];" vertex="1" connectable="0" parent="U0KB2hz7Z5mPvC2rz3nU-146">
          <mxGeometry x="-0.2684" y="-3" relative="1" as="geometry">
            <mxPoint as="offset" />
          </mxGeometry>
        </mxCell>
        <mxCell id="U0KB2hz7Z5mPvC2rz3nU-150" value="" style="endArrow=classic;html=1;rounded=0;sourcePerimeterSpacing=4;exitX=0.917;exitY=0.67;exitDx=0;exitDy=0;exitPerimeter=0;" edge="1" parent="1" source="U0KB2hz7Z5mPvC2rz3nU-71" target="U0KB2hz7Z5mPvC2rz3nU-148">
          <mxGeometry width="50" height="50" relative="1" as="geometry">
            <mxPoint x="-720" y="-400" as="sourcePoint" />
            <mxPoint x="-630" y="-350" as="targetPoint" />
            <Array as="points">
              <mxPoint x="-530" y="-400" />
            </Array>
          </mxGeometry>
        </mxCell>
        <mxCell id="U0KB2hz7Z5mPvC2rz3nU-151" value="发起取消" style="edgeLabel;html=1;align=center;verticalAlign=middle;resizable=0;points=[];" vertex="1" connectable="0" parent="U0KB2hz7Z5mPvC2rz3nU-150">
          <mxGeometry x="-0.5367" y="-2" relative="1" as="geometry">
            <mxPoint as="offset" />
          </mxGeometry>
        </mxCell>
        <mxCell id="U0KB2hz7Z5mPvC2rz3nU-152" value="" style="endArrow=classic;html=1;rounded=0;edgeStyle=orthogonalEdgeStyle;startSize=5;" edge="1" parent="1" source="U0KB2hz7Z5mPvC2rz3nU-71">
          <mxGeometry width="50" height="50" relative="1" as="geometry">
            <mxPoint x="-720" y="-300" as="sourcePoint" />
            <mxPoint x="-725" y="-270" as="targetPoint" />
            <Array as="points">
              <mxPoint x="-697" y="-300" />
              <mxPoint x="-697" y="-270" />
            </Array>
          </mxGeometry>
        </mxCell>
        <mxCell id="U0KB2hz7Z5mPvC2rz3nU-153" value="返回" style="edgeLabel;html=1;align=left;verticalAlign=middle;resizable=0;points=[];" vertex="1" connectable="0" parent="U0KB2hz7Z5mPvC2rz3nU-152">
          <mxGeometry x="-0.3488" y="-1" relative="1" as="geometry">
            <mxPoint x="-14" y="15" as="offset" />
          </mxGeometry>
        </mxCell>
        <mxCell id="U0KB2hz7Z5mPvC2rz3nU-155" value="" style="endArrow=classic;html=1;rounded=0;" edge="1" parent="1" source="U0KB2hz7Z5mPvC2rz3nU-63" target="U0KB2hz7Z5mPvC2rz3nU-154">
          <mxGeometry width="50" height="50" relative="1" as="geometry">
            <mxPoint x="-720" y="-320" as="sourcePoint" />
            <mxPoint x="-780" y="-470" as="targetPoint" />
            <Array as="points">
              <mxPoint x="-580" y="-360" />
            </Array>
          </mxGeometry>
        </mxCell>
        <mxCell id="U0KB2hz7Z5mPvC2rz3nU-156" value="修改已有运单状态" style="edgeLabel;html=1;align=center;verticalAlign=middle;resizable=0;points=[];" vertex="1" connectable="0" parent="U0KB2hz7Z5mPvC2rz3nU-155">
          <mxGeometry x="-0.4" relative="1" as="geometry">
            <mxPoint as="offset" />
          </mxGeometry>
        </mxCell>
      </root>
    </mxGraphModel>
  </diagram>
</mxfile>
